HIERARCHY
ROOT Joint1
{
	OFFSET 0.000000 0.000000 0.000000
	CHANNELS 6 Xposition Yposition Zposition Xrotation Yrotation Zrotation
	JOINT Joint2
	{
		OFFSET -0.000000 0.000000 1.456275
		CHANNELS 6 Xposition Yposition Zposition Xrotation Yrotation Zrotation
		JOINT Joint3
		{
			OFFSET -0.000000 0.000002 1.471446
			CHANNELS 6 Xposition Yposition Zposition Xrotation Yrotation Zrotation
			JOINT Joint4
			{
				OFFSET 0.625745 0.000000 0.917755
				CHANNELS 6 Xposition Yposition Zposition Xrotation Yrotation Zrotation
				JOINT Joint5
				{
					OFFSET -0.629534 0.000001 0.940221
					CHANNELS 6 Xposition Yposition Zposition Xrotation Yrotation Zrotation
					JOINT Joint6
					{
						OFFSET -0.000001 0.113772 1.960660
						CHANNELS 6 Xposition Yposition Zposition Xrotation Yrotation Zrotation
						JOINT Joint7
						{
							OFFSET -0.669733 -0.113771 0.388340
							CHANNELS 6 Xposition Yposition Zposition Xrotation Yrotation Zrotation
							End Site
							{
								OFFSET 0.005509 0.005509 0.438980
							}
						}
					}
				}
			}
		}
	}
}
MOTION
Frames: 3
Frame Time: 0.041667
0.000000 0.000000 0.000000 -0.000000 1.019410 -0.508974 -0.000000 0.000000 1.456275 0.000000 -44.262542 0.000000 -0.000001 0.000002 1.471446 -0.000000 -1.133460 0.565399 0.625745 0.000000 0.917755 0.000004 134.522365 -0.000001 -0.629534 0.000001 0.940221 -0.000000 1.709736 1.298549 -0.000000 0.113772 1.960660 -88.304114 89.157212 -0.000160 -0.669733 -0.113771 0.388340 -0.677352 3.565801 133.397693 
0.000000 0.000000 0.000000 -0.000000 1.019410 0.001462 -0.000000 0.000000 1.456275 -0.000000 -44.973217 0.000000 -0.000000 0.000002 1.471446 0.000000 -1.133455 -0.002661 0.625745 0.000000 0.917755 0.000004 134.987542 -0.000001 -0.629534 0.000001 0.940221 0.000000 1.709736 0.004021 -0.000001 0.113772 1.960661 -88.286069 90.010535 0.012281 -0.669733 -0.113771 0.388340 -0.705430 3.566198 134.978704 
0.000000 0.000000 0.000000 -0.000000 1.019410 -5.850410 -0.000000 0.000000 1.456275 -0.000001 -43.146838 -0.000000 -0.000000 0.000002 1.471446 -0.000000 -1.133461 4.459869 0.625744 0.000000 0.917755 0.000004 135.075802 -0.000000 -0.629534 0.000001 0.940221 0.000000 1.709736 -1.336231 -0.000000 0.113772 1.960660 -88.303998 88.292858 -0.000064 -0.669733 -0.113771 0.388340 -0.767539 3.564328 138.477550 
